HIERARCHY
ROOT Hips
{
	OFFSET 0.00000 0.00000 0.00000
	CHANNELS 6 Xposition Yposition Zposition Yrotation Zrotation Xrotation 
	JOINT Lumbar
	{
		OFFSET 0 0 0
		CHANNELS 3 Zrotation Xrotation Yrotation
		JOINT Neck
		{
			OFFSET 0.00 0.2701 0.00
			CHANNELS 3 Zrotation Xrotation Yrotation
			End Site
			{
				OFFSET 0.00 0.1379 0.00
			}
		}
		JOINT RightShoulder
		{
			OFFSET 0.0119 0.2289 0.1181
			CHANNELS 3 Zrotation Xrotation Yrotation
			JOINT RightElbow
			{
				OFFSET 0.00 -0.1475 0.00
				CHANNELS 2 Zrotation Yrotation
				JOINT RightWrist
				{
					OFFSET 0.00 -0.1605 0.00
					CHANNELS 2 Zrotation Xrotation
					End Site
					{
						OFFSET 0.0040 -0.1068 0.0006
					}
				}
			}
		}
		JOINT LeftShoulder
		{
			OFFSET 0.0119 0.2289 -0.1181
			CHANNELS 3 Zrotation Xrotation Yrotation
			JOINT LeftElbow
			{
				OFFSET 0.00 -0.1475 0.00
				CHANNELS 2 Zrotation Yrotation
				JOINT LeftWrist
				{
					OFFSET 0.00 -0.1605 0.00
					CHANNELS 2 Zrotation Xrotation
					End Site
					{
						OFFSET 0.0040 -0.1068 -0.0006
					}
				}
			}
		}
	}
	JOINT RightHip
	{
		OFFSET 0.0316 -0.0424 0.0458
		CHANNELS 3 Zrotation Xrotation Yrotation
		JOINT RightKnee
		{
			OFFSET 0.00 -0.2438 0.00
			CHANNELS 1 Zrotation
			JOINT RightAnkle
			{
				OFFSET 0.00 -0.2449 0.00
				CHANNELS 3 Zrotation Xrotation Yrotation
				End Site
				{
					OFFSET 0.1237 -0.0542 0.0051
				}
			}
		}
	}
	JOINT LeftHip
	{
		OFFSET 0.0316 -0.0424 -0.0458
		CHANNELS 3 Zrotation Xrotation Yrotation
		JOINT LeftKnee
		{
			OFFSET 0.00 -0.2438 0.00
			CHANNELS 1 Zrotation
			JOINT LeftAnkle
			{
				OFFSET 0.00 -0.2449 0.00
				CHANNELS 3 Zrotation Xrotation Yrotation
				End Site
				{
					OFFSET 0.1237 -0.0542 -0.0051
				}
			}
		}
	}
}
MOTION
Frames: 11
Frame Time: 0.02
-0.00019 -6e-05 -0.00033 22.64615 -30.41246 -5.06305 48.14898 1.369 -5.95286 3.44597 0.28912 -0.1202 -22.11369 -1.65428 -17.78907 37.24209 170.04899 29.57346 12.1824 -25.56828 11.27382 -8.46677 47.25435 -126.5008 23.99987 -4.86455 43.6241 1.54376 -2.21749 -19.25249 -6.18051 -3.78686 -2.68922 47.62632 3.34062 4.39277 -24.97493 -6.27143 2.74323 2.04056
-6e-05 -5e-05 -1e-05 22.64144 -30.34918 -4.9907 48.19857 1.3934 -6.1743 3.24336 0.0488 -0.12174 -22.4256 -2.5217 -15.68 37.14214 162.78556 27.53588 11.06934 -25.34995 11.78483 -9.60626 47.1967 -122.34194 22.18643 -4.16352 43.55057 1.44283 -2.70188 -19.25204 -6.17071 -3.75839 -2.65854 47.5524 3.33292 4.41394 -24.9735 -6.27515 2.744 2.04076
7e-05 -3e-05 0.00031 22.63674 -30.28606 -4.91846 48.2481 1.41777 -6.39531 3.04113 -0.19119 -0.12327 -22.73698 -3.38632 -13.5788 37.04205 155.54425 25.5043 9.95974 -25.13246 12.29369 -10.7405 47.13928 -118.20128 20.38088 -3.46554 43.47724 1.34217 -3.18484 -19.25159 -6.16092 -3.72997 -2.62793 47.47865 3.32522 4.435 -24.97206 -6.27887 2.74479 2.04096
0.0002 -1e-05 0.00063 22.63205 -30.22297 -4.84631 48.29755 1.44209 -6.6161 2.8391 -0.43083 -0.12481 -23.04799 -4.25103 -11.47639 36.94235 148.30315 23.47295 8.85011 -24.91483 12.80301 -11.87617 47.0818 -114.05607 18.57341 -2.76681 43.40394 1.24155 -3.66775 -19.25114 -6.15114 -3.70159 -2.59734 47.40495 3.31755 4.45609 -24.97064 -6.28258 2.74556 2.04116
0.00033 0 0.00095 22.62735 -30.15974 -4.7741 48.34703 1.46643 -6.83724 2.63677 -0.67069 -0.12634 -23.35937 -5.11864 -9.36574 36.84292 141.04003 21.43569 7.73702 -24.69631 13.31476 -13.01784 47.02409 -109.89076 16.75715 -2.06468 43.33043 1.14066 -4.15207 -19.25067 -6.14135 -3.67318 -2.56668 47.33107 3.30988 4.4773 -24.96921 -6.2863 2.74632 2.04134
0.00047 2e-05 0.00127 22.62267 -30.09683 -4.70179 48.39666 1.49086 -7.05799 2.43477 -0.91097 -0.12788 -23.67071 -5.97695 -7.28461 36.74144 133.84498 19.41616 6.63482 -24.48102 13.81756 -14.13647 46.96733 -105.80213 14.97421 -1.37549 43.25747 1.04049 -4.63214 -19.25029 -6.13156 -3.64473 -2.5362 47.25761 3.30211 4.49803 -24.96775 -6.29002 2.74716 2.04159
0.0006 4e-05 0.00158 22.61793 -30.03335 -4.62977 48.44595 1.51505 -7.27922 2.23232 -1.15004 -0.12942 -23.98179 -6.85286 -5.14614 36.64427 126.5213 17.3633 5.51198 -24.25943 14.3376 -15.29987 46.90863 -101.56383 13.12639 -0.66107 43.18352 0.939 -5.1202 -19.24972 -6.12178 -3.6164 -2.50538 47.18342 3.29457 4.51973 -24.96637 -6.29373 2.74784 2.04171
0.00073 6e-05 0.00191 22.6133 -29.97038 -4.55745 48.49552 1.53953 -7.50009 2.03029 -1.3904 -0.13095 -24.29312 -7.71282 -3.06096 36.54299 119.31547 15.34098 4.40805 -24.04371 14.84211 -16.42261 46.85186 -97.46335 11.33803 0.03019 43.11045 0.83869 -5.60096 -19.24935 -6.11198 -3.58795 -2.47487 47.10987 3.2868 4.54049 -24.96492 -6.29746 2.74867 2.04195
0.00086 7e-05 0.00223 22.60856 -29.90809 -4.48484 48.54558 1.56412 -7.72032 1.82864 -1.6318 -0.13247 -24.60492 -8.55253 -1.03864 36.43711 112.25367 13.35584 3.32726 -23.83489 15.32631 -17.49334 46.7969 -93.53137 9.62348 0.69285 43.03854 0.73995 -6.07272 -19.24913 -6.10218 -3.55935 -2.44475 47.03718 3.27883 4.56028 -24.96334 -6.30119 2.74964 2.04232
0.00099 9e-05 0.00253 22.60375 -29.84205 -4.41414 48.59327 1.58736 -7.94366 1.62441 -1.86564 -0.13405 -24.91453 -9.50648 1.35223 36.35897 104.36291 11.1563 2.11338 -23.58552 15.92339 -18.85639 46.72985 -88.62995 7.48765 1.51918 42.96018 0.63256 -6.59607 -19.24774 -6.09246 -3.53159 -2.41242 46.95975 3.27226 4.58618 -24.9624 -6.30484 2.74969 2.0419
0.00112 0.0001 0.00288 22.59955 -29.78382 -4.33926 48.64567 1.61387 -8.16076 1.42588 -2.11637 -0.13552 -25.22836 -10.22081 2.96113 36.22153 98.22184 9.40959 1.18036 -23.42224 16.28486 -19.60723 46.6894 -85.77354 6.23835 2.00083 42.8953 0.54316 -7.01067 -19.24903 -6.08255 -3.50211 -2.38475 46.8922 3.26255 4.59886 -24.96016 -6.30868 2.75175 2.04316
